<svg xmlns="http://www.w3.org/2000/svg" viewBox="0 0 1100 780" font-family="Inter,Segoe UI,Helvetica,Arial,sans-serif">
<defs>
<marker id="ar_a" markerWidth="10" markerHeight="7" refX="9" refY="3.5" orient="auto"><polygon points="0 0, 10 3.5, 0 7" fill="#1f2937"/></marker>
<marker id="ar_blue" markerWidth="10" markerHeight="7" refX="9" refY="3.5" orient="auto"><polygon points="0 0, 10 3.5, 0 7" fill="#2563eb"/></marker>
<marker id="ar_red" markerWidth="10" markerHeight="7" refX="9" refY="3.5" orient="auto"><polygon points="0 0, 10 3.5, 0 7" fill="#dc2626"/></marker>
<marker id="ar_purple" markerWidth="10" markerHeight="7" refX="9" refY="3.5" orient="auto"><polygon points="0 0, 10 3.5, 0 7" fill="#7c3aed"/></marker>
<marker id="ar_green" markerWidth="10" markerHeight="7" refX="9" refY="3.5" orient="auto"><polygon points="0 0, 10 3.5, 0 7" fill="#059669"/></marker>
<marker id="ar_indigo" markerWidth="10" markerHeight="7" refX="9" refY="3.5" orient="auto"><polygon points="0 0, 10 3.5, 0 7" fill="#4f46e5"/></marker>
<marker id="ar_amber" markerWidth="10" markerHeight="7" refX="9" refY="3.5" orient="auto"><polygon points="0 0, 10 3.5, 0 7" fill="#d97706"/></marker>
<marker id="ar_gold" markerWidth="10" markerHeight="7" refX="9" refY="3.5" orient="auto"><polygon points="0 0, 10 3.5, 0 7" fill="#ca8a04"/></marker>
<filter id="sh" x="-5%" y="-5%" width="110%" height="115%"><feDropShadow dx="0" dy="1.5" stdDeviation="2" flood-opacity="0.18"/></filter></defs>
<rect width="1100" height="780" fill="#ffffff"/>
<text x="550.0" y="34" text-anchor="middle" font-size="22" font-weight="700" fill="#1f2937">Serving + Drift -> Retrain -> Canary Loop (L3 * centerpiece)</text>
<text x="550.0" y="54" text-anchor="middle" font-size="13" fill="#6b7280">Evidently -> Prometheus -> Airflow/Argo -> Flagger -> KServe</text>
<rect x="60" y="80" width="980" height="130" rx="10" fill="#f9fafb" stroke="#d97706" stroke-width="1.5" stroke-dasharray="6,4"/>
<text x="72" y="100" font-size="13" font-weight="700" fill="#d97706">serving-ns</text>
<rect x="90" y="116" width="200" height="60" rx="7" fill="#fde68a" stroke="#d97706" stroke-width="1.4" filter="url(#sh)"/>
<text x="190.0" y="144.0" text-anchor="middle" font-size="12" font-weight="600" fill="#1f2937">KServe + Triton</text>
<text x="190.0" y="159.0" text-anchor="middle" font-size="9.5" fill="#6b7280">ONNX-CPU predictor</text>
<rect x="330" y="116" width="180" height="60" rx="7" fill="#fde68a" stroke="#d97706" stroke-width="1.4" filter="url(#sh)"/>
<text x="420.0" y="144.0" text-anchor="middle" font-size="12" font-weight="600" fill="#1f2937">KEDA autoscale</text>
<text x="420.0" y="159.0" text-anchor="middle" font-size="9.5" fill="#6b7280">Prometheus-driven</text>
<rect x="560" y="116" width="200" height="60" rx="7" fill="#fde68a" stroke="#d97706" stroke-width="1.4" filter="url(#sh)"/>
<text x="660.0" y="144.0" text-anchor="middle" font-size="12" font-weight="600" fill="#1f2937">Flagger canary</text>
<text x="660.0" y="159.0" text-anchor="middle" font-size="9.5" fill="#6b7280">5->25->50->100%</text>
<rect x="800" y="116" width="210" height="60" rx="7" fill="#fde68a" stroke="#d97706" stroke-width="1.4" filter="url(#sh)"/>
<text x="905.0" y="144.0" text-anchor="middle" font-size="12" font-weight="600" fill="#1f2937">primary / canary models</text>
<text x="905.0" y="159.0" text-anchor="middle" font-size="9.5" fill="#6b7280">traffic split</text>
<line x1="290" y1="146" x2="330" y2="146" stroke="amber" stroke-width="2" marker-end="url(#ar_amber)"/>
<line x1="510" y1="146" x2="560" y2="146" stroke="amber" stroke-width="2" marker-end="url(#ar_amber)"/>
<line x1="760" y1="146" x2="800" y2="146" stroke="amber" stroke-width="2" marker-end="url(#ar_amber)"/>
<rect x="90" y="250" width="260" height="56" rx="7" fill="#bfdbfe" stroke="#2563eb" stroke-width="1.4" filter="url(#sh)"/>
<text x="220.0" y="276.0" text-anchor="middle" font-size="12" font-weight="600" fill="#1f2937">predictions + features</text>
<text x="220.0" y="291.0" text-anchor="middle" font-size="9.5" fill="#6b7280">-> Kafka / MinIO window</text>
<line x1="190" y1="176" x2="190" y2="250" stroke="red" stroke-width="2" marker-end="url(#ar_red)"/>
<rect x="147.0" y="204.0" width="86" height="15" rx="3" fill="#ffffff" opacity="0.95"/>
<text x="190.0" y="215.0" text-anchor="middle" font-size="10" fill="#6b7280">inference out</text>
<rect x="440" y="250" width="250" height="56" rx="7" fill="#fecaca" stroke="#dc2626" stroke-width="1.4" filter="url(#sh)"/>
<text x="565.0" y="276.0" text-anchor="middle" font-size="12" font-weight="600" fill="#1f2937">Evidently AI (CronJob 1h)</text>
<text x="565.0" y="291.0" text-anchor="middle" font-size="9.5" fill="#6b7280">KS-test / PSI vs reference</text>
<line x1="350" y1="278" x2="440" y2="278" stroke="red" stroke-width="2" marker-end="url(#ar_red)"/>
<rect x="358.0" y="269.0" width="74" height="15" rx="3" fill="#ffffff" opacity="0.95"/>
<text x="395.0" y="280.0" text-anchor="middle" font-size="10" fill="#6b7280">recent data</text>
<rect x="780" y="250" width="230" height="56" rx="7" fill="#bbf7d0" stroke="#059669" stroke-width="1.4" filter="url(#sh)"/>
<text x="895.0" y="276.0" text-anchor="middle" font-size="12" font-weight="600" fill="#1f2937">Prometheus</text>
<text x="895.0" y="291.0" text-anchor="middle" font-size="9.5" fill="#6b7280">model_drift_score metric</text>
<line x1="690" y1="278" x2="780" y2="278" stroke="green" stroke-width="2" marker-end="url(#ar_green)"/>
<rect x="713.0" y="269.0" width="44" height="15" rx="3" fill="#ffffff" opacity="0.95"/>
<text x="735.0" y="280.0" text-anchor="middle" font-size="10" fill="#6b7280">export</text>
<polygon points="895,355.0 985.0,400 895,445.0 805.0,400" fill="#fef9c3" stroke="#ca8a04" stroke-width="1.4" filter="url(#sh)"/>
<text x="895" y="404" text-anchor="middle" font-size="11" font-weight="600" fill="#1f2937">drift_score > 0.5 ?</text>
<line x1="895" y1="306" x2="895" y2="355" stroke="green" stroke-width="2" marker-end="url(#ar_green)"/>
<rect x="720" y="470" width="180" height="50" rx="7" fill="#bbf7d0" stroke="#059669" stroke-width="1.4" filter="url(#sh)"/>
<text x="810.0" y="493.0" text-anchor="middle" font-size="12" font-weight="600" fill="#1f2937">continue serving</text>
<text x="810.0" y="508.0" text-anchor="middle" font-size="9.5" fill="#6b7280">Grafana dashboard</text>
<line x1="820" y1="430" x2="810" y2="470" stroke="green" stroke-width="2" marker-end="url(#ar_green)"/>
<rect x="805.0" y="441.0" width="20" height="15" rx="3" fill="#ffffff" opacity="0.95"/>
<text x="815.0" y="452.0" text-anchor="middle" font-size="10" fill="#6b7280">NO</text>
<path d="M 720,495 C 400,520 200,400 200,176" fill="none" stroke="green" stroke-width="2" stroke-dasharray="6,4" marker-end="url(#ar_green)"/>
<rect x="281.0" y="461" width="38" height="15" rx="3" fill="#ffffff" opacity="0.95"/>
<text x="300" y="472" text-anchor="middle" font-size="10" fill="#6b7280">serve</text>
<rect x="620" y="560" width="260" height="52" rx="7" fill="#fecaca" stroke="#dc2626" stroke-width="1.4" filter="url(#sh)"/>
<text x="750.0" y="584.0" text-anchor="middle" font-size="12" font-weight="600" fill="#1f2937">Alert -> webhook</text>
<text x="750.0" y="599.0" text-anchor="middle" font-size="9.5" fill="#6b7280">POST DAG trigger</text>
<line x1="895" y1="445" x2="820" y2="560" stroke="red" stroke-width="2" marker-end="url(#ar_red)"/>
<rect x="844.5" y="493.5" width="26" height="15" rx="3" fill="#ffffff" opacity="0.95"/>
<text x="857.5" y="504.5" text-anchor="middle" font-size="10" fill="#6b7280">YES</text>
<rect x="330" y="560" width="250" height="52" rx="7" fill="#c7d2fe" stroke="#4f46e5" stroke-width="1.4" filter="url(#sh)"/>
<text x="455.0" y="584.0" text-anchor="middle" font-size="12" font-weight="600" fill="#1f2937">Airflow/Argo retrain DAG</text>
<text x="455.0" y="599.0" text-anchor="middle" font-size="9.5" fill="#6b7280">fetch Gold->train->eval (GE)</text>
<line x1="620" y1="586" x2="580" y2="586" stroke="red" stroke-width="2" marker-end="url(#ar_red)"/>
<rect x="60" y="560" width="230" height="52" rx="7" fill="#c7d2fe" stroke="#4f46e5" stroke-width="1.4" filter="url(#sh)"/>
<text x="175.0" y="584.0" text-anchor="middle" font-size="12" font-weight="600" fill="#1f2937">MLflow registry</text>
<text x="175.0" y="599.0" text-anchor="middle" font-size="9.5" fill="#6b7280">Staging if F1>baseline</text>
<line x1="330" y1="586" x2="290" y2="586" stroke="indigo" stroke-width="2" marker-end="url(#ar_indigo)"/>
<path d="M 175,560 C 120,420 200,260 560,176" fill="none" stroke="indigo" stroke-width="2" stroke-dasharray="6,4" marker-end="url(#ar_indigo)"/>
<rect x="229.0" y="291" width="62" height="15" rx="3" fill="#ffffff" opacity="0.95"/>
<text x="260" y="302" text-anchor="middle" font-size="10" fill="#6b7280">canary 5%</text>
<rect x="60" y="680" width="400" height="46" rx="7" fill="#bbf7d0" stroke="#059669" stroke-width="1.4" filter="url(#sh)"/>
<text x="260.0" y="701.0" text-anchor="middle" font-size="12" font-weight="600" fill="#1f2937">Grafana: drift_score · latency · accuracy · canary %</text>
<text x="260.0" y="716.0" text-anchor="middle" font-size="9.5" fill="#6b7280">monitoring panels + Slack alert</text>
<line x1="895" y1="250" x2="950" y2="250" stroke="green" stroke-width="2" marker-end="url(#ar_green)"/>
<text x="540" y="712" font-size="11" fill="#6b7280">Red=drift path · Indigo=retrain/promote · Green=telemetry/healthy · loop restarts after promote</text>
</svg>