<svg xmlns="http://www.w3.org/2000/svg" viewBox="0 0 1200 560" font-family="Inter,Segoe UI,Helvetica,Arial,sans-serif">
<defs>
<marker id="ar_a" markerWidth="10" markerHeight="7" refX="9" refY="3.5" orient="auto"><polygon points="0 0, 10 3.5, 0 7" fill="#1f2937"/></marker>
<marker id="ar_blue" markerWidth="10" markerHeight="7" refX="9" refY="3.5" orient="auto"><polygon points="0 0, 10 3.5, 0 7" fill="#2563eb"/></marker>
<marker id="ar_red" markerWidth="10" markerHeight="7" refX="9" refY="3.5" orient="auto"><polygon points="0 0, 10 3.5, 0 7" fill="#dc2626"/></marker>
<marker id="ar_purple" markerWidth="10" markerHeight="7" refX="9" refY="3.5" orient="auto"><polygon points="0 0, 10 3.5, 0 7" fill="#7c3aed"/></marker>
<marker id="ar_green" markerWidth="10" markerHeight="7" refX="9" refY="3.5" orient="auto"><polygon points="0 0, 10 3.5, 0 7" fill="#059669"/></marker>
<marker id="ar_indigo" markerWidth="10" markerHeight="7" refX="9" refY="3.5" orient="auto"><polygon points="0 0, 10 3.5, 0 7" fill="#4f46e5"/></marker>
<marker id="ar_amber" markerWidth="10" markerHeight="7" refX="9" refY="3.5" orient="auto"><polygon points="0 0, 10 3.5, 0 7" fill="#d97706"/></marker>
<marker id="ar_gold" markerWidth="10" markerHeight="7" refX="9" refY="3.5" orient="auto"><polygon points="0 0, 10 3.5, 0 7" fill="#ca8a04"/></marker>
<filter id="sh" x="-5%" y="-5%" width="110%" height="115%"><feDropShadow dx="0" dy="1.5" stdDeviation="2" flood-opacity="0.18"/></filter></defs>
<rect width="1200" height="560" fill="#ffffff"/>
<text x="600.0" y="34" text-anchor="middle" font-size="22" font-weight="700" fill="#1f2937">RAG / LLM Pipeline (L3 · AI Track 4B)</text>
<text x="600.0" y="54" text-anchor="middle" font-size="13" fill="#6b7280">query -> hybrid retrieve (vector+keyword) -> LLM -> guardrails</text>
<rect x="40" y="120" width="150" height="60" rx="7" fill="#f9fafb" stroke="#7c3aed" stroke-width="1.4" filter="url(#sh)"/>
<text x="115.0" y="148.0" text-anchor="middle" font-size="12" font-weight="600" fill="#1f2937">User question</text>
<text x="115.0" y="163.0" text-anchor="middle" font-size="9.5" fill="#6b7280">chat UI</text>
<rect x="230" y="120" width="160" height="60" rx="7" fill="#ddd6fe" stroke="#7c3aed" stroke-width="1.4" filter="url(#sh)"/>
<text x="310.0" y="148.0" text-anchor="middle" font-size="12" font-weight="600" fill="#1f2937">RAGFlow engine</text>
<text x="310.0" y="163.0" text-anchor="middle" font-size="9.5" fill="#6b7280">query rewrite</text>
<rect x="430" y="120" width="160" height="60" rx="7" fill="#ddd6fe" stroke="#7c3aed" stroke-width="1.4" filter="url(#sh)"/>
<text x="510.0" y="148.0" text-anchor="middle" font-size="12" font-weight="600" fill="#1f2937">Embed (MiniLM)</text>
<text x="510.0" y="163.0" text-anchor="middle" font-size="9.5" fill="#6b7280">sentence-transf.</text>
<rect x="640" y="60" width="180" height="56" rx="7" fill="#ddd6fe" stroke="#7c3aed" stroke-width="1.4" filter="url(#sh)"/>
<text x="730.0" y="86.0" text-anchor="middle" font-size="12" font-weight="600" fill="#1f2937">Weaviate</text>
<text x="730.0" y="101.0" text-anchor="middle" font-size="9.5" fill="#6b7280">vector search</text>
<rect x="640" y="150" width="180" height="56" rx="7" fill="#ddd6fe" stroke="#7c3aed" stroke-width="1.4" filter="url(#sh)"/>
<text x="730.0" y="176.0" text-anchor="middle" font-size="12" font-weight="600" fill="#1f2937">Typesense</text>
<text x="730.0" y="191.0" text-anchor="middle" font-size="9.5" fill="#6b7280">keyword search</text>
<rect x="860" y="105" width="170" height="60" rx="7" fill="#ddd6fe" stroke="#7c3aed" stroke-width="1.4" filter="url(#sh)"/>
<text x="945.0" y="133.0" text-anchor="middle" font-size="12" font-weight="600" fill="#1f2937">Context assembly</text>
<text x="945.0" y="148.0" text-anchor="middle" font-size="9.5" fill="#6b7280">merge + rerank</text>
<rect x="1050" y="105" width="120" height="60" rx="7" fill="#c7d2fe" stroke="#4f46e5" stroke-width="1.4" filter="url(#sh)"/>
<text x="1110.0" y="133.0" text-anchor="middle" font-size="12" font-weight="600" fill="#1f2937">Ollama LLM</text>
<text x="1110.0" y="148.0" text-anchor="middle" font-size="9.5" fill="#6b7280">TinyLlama CPU</text>
<line x1="190" y1="150" x2="230" y2="150" stroke="purple" stroke-width="2" marker-end="url(#ar_purple)"/>
<line x1="390" y1="150" x2="430" y2="150" stroke="purple" stroke-width="2" marker-end="url(#ar_purple)"/>
<rect x="391.0" y="141.0" width="38" height="15" rx="3" fill="#ffffff" opacity="0.95"/>
<text x="410.0" y="152.0" text-anchor="middle" font-size="10" fill="#6b7280">query</text>
<line x1="590" y1="140" x2="640" y2="90" stroke="purple" stroke-width="2" marker-end="url(#ar_purple)"/>
<line x1="590" y1="160" x2="640" y2="178" stroke="purple" stroke-width="2" marker-end="url(#ar_purple)"/>
<line x1="820" y1="88" x2="860" y2="120" stroke="purple" stroke-width="2" marker-end="url(#ar_purple)"/>
<rect x="827.0" y="95.0" width="26" height="15" rx="3" fill="#ffffff" opacity="0.95"/>
<text x="840.0" y="106.0" text-anchor="middle" font-size="10" fill="#6b7280">vec</text>
<line x1="820" y1="178" x2="860" y2="150" stroke="purple" stroke-width="2" marker-end="url(#ar_purple)"/>
<rect x="830.0" y="155.0" width="20" height="15" rx="3" fill="#ffffff" opacity="0.95"/>
<text x="840.0" y="166.0" text-anchor="middle" font-size="10" fill="#6b7280">kw</text>
<line x1="1030" y1="135" x2="1050" y2="135" stroke="indigo" stroke-width="2" marker-end="url(#ar_indigo)"/>
<rect x="1018.0" y="126.0" width="44" height="15" rx="3" fill="#ffffff" opacity="0.95"/>
<text x="1040.0" y="137.0" text-anchor="middle" font-size="10" fill="#6b7280">prompt</text>
<rect x="1050" y="260" width="120" height="56" rx="7" fill="#bbf7d0" stroke="#059669" stroke-width="1.4" filter="url(#sh)"/>
<text x="1110.0" y="286.0" text-anchor="middle" font-size="12" font-weight="600" fill="#1f2937">Langfuse</text>
<text x="1110.0" y="301.0" text-anchor="middle" font-size="9.5" fill="#6b7280">trace · cost</text>
<line x1="1110" y1="165" x2="1110" y2="260" stroke="green" stroke-width="2" marker-end="url(#ar_green)"/>
<rect x="1091.0" y="203.5" width="38" height="15" rx="3" fill="#ffffff" opacity="0.95"/>
<text x="1110.0" y="214.5" text-anchor="middle" font-size="10" fill="#6b7280">trace</text>
<rect x="820" y="260" width="160" height="56" rx="7" fill="#fecaca" stroke="#dc2626" stroke-width="1.4" filter="url(#sh)"/>
<text x="900.0" y="286.0" text-anchor="middle" font-size="12" font-weight="600" fill="#1f2937">Guardrails</text>
<text x="900.0" y="301.0" text-anchor="middle" font-size="9.5" fill="#6b7280">safety check</text>
<line x1="1050" y1="300" x2="980" y2="300" stroke="green" stroke-width="2" marker-end="url(#ar_green)"/>
<rect x="560" y="260" width="180" height="56" rx="7" fill="#f9fafb" stroke="#7c3aed" stroke-width="1.4" filter="url(#sh)"/>
<text x="650.0" y="286.0" text-anchor="middle" font-size="12" font-weight="600" fill="#1f2937">Response</text>
<text x="650.0" y="301.0" text-anchor="middle" font-size="9.5" fill="#6b7280">to user</text>
<line x1="820" y1="288" x2="740" y2="288" stroke="red" stroke-width="2" marker-end="url(#ar_red)"/>
<rect x="752.0" y="279.0" width="56" height="15" rx="3" fill="#ffffff" opacity="0.95"/>
<text x="780.0" y="290.0" text-anchor="middle" font-size="10" fill="#6b7280">filtered</text>
<rect x="40" y="360" width="1130" height="140" rx="10" fill="#f9fafb" stroke="#2563eb" stroke-width="1.5" stroke-dasharray="6,4"/>
<text x="52" y="380" font-size="13" font-weight="700" fill="#2563eb">Indexed sources (from data pipeline metadata + docs)</text>
<rect x="60" y="398" width="170" height="44" rx="7" fill="#bfdbfe" stroke="#2563eb" stroke-width="1.4" filter="url(#sh)"/>
<text x="145.0" y="424.0" text-anchor="middle" font-size="12" font-weight="600" fill="#1f2937">detection_reports</text>
<rect x="245" y="398" width="170" height="44" rx="7" fill="#bfdbfe" stroke="#2563eb" stroke-width="1.4" filter="url(#sh)"/>
<text x="330.0" y="424.0" text-anchor="middle" font-size="12" font-weight="600" fill="#1f2937">model_documentation</text>
<rect x="430" y="398" width="170" height="44" rx="7" fill="#bfdbfe" stroke="#2563eb" stroke-width="1.4" filter="url(#sh)"/>
<text x="515.0" y="424.0" text-anchor="middle" font-size="12" font-weight="600" fill="#1f2937">system_runbooks</text>
<rect x="615" y="398" width="170" height="44" rx="7" fill="#bfdbfe" stroke="#2563eb" stroke-width="1.4" filter="url(#sh)"/>
<text x="700.0" y="424.0" text-anchor="middle" font-size="12" font-weight="600" fill="#1f2937">api_documentation</text>
<rect x="800" y="398" width="170" height="44" rx="7" fill="#bfdbfe" stroke="#2563eb" stroke-width="1.4" filter="url(#sh)"/>
<text x="885.0" y="424.0" text-anchor="middle" font-size="12" font-weight="600" fill="#1f2937">monitoring_alerts</text>
<rect x="985" y="398" width="170" height="44" rx="7" fill="#bfdbfe" stroke="#2563eb" stroke-width="1.4" filter="url(#sh)"/>
<text x="1070.0" y="424.0" text-anchor="middle" font-size="12" font-weight="600" fill="#1f2937">detections_metadata</text>
<line x1="420" y1="360" x2="720" y2="206" stroke="blue" stroke-width="2" stroke-dasharray="4,2" marker-end="url(#ar_blue)"/>
<rect x="523.0" y="311" width="74" height="15" rx="3" fill="#ffffff" opacity="0.95"/>
<text x="560" y="322" text-anchor="middle" font-size="10" fill="#6b7280">index/embed</text>
<text x="40" y="535" font-size="11" fill="#6b7280">Purple=RAG retrieval · Indigo=LLM gen · Green=observability · Red=guardrail · Note: RAGFlow heavy->GKE; kind uses Ollama+Weaviate minimal</text>
</svg>